<svg width="78" height="95" viewBox="0 0 78 95" fill="none" xmlns="http://www.w3.org/2000/svg">
<path d="M11.4228 11.3685C-1.37641 24.1067 -3.41956 44.4099 5.29335 59.5633C8.6375 65.3795 14.2852 69.3736 19.9597 72.9806L20.3421 73.2237C28.6001 78.473 35.0966 86.0552 39 95C42.9034 86.0552 49.3999 78.473 57.6579 73.2237L58.0403 72.9806C63.7148 69.3736 69.3625 65.3795 72.7066 59.5633C81.4196 44.4099 79.3764 24.1067 66.5772 11.3685C51.3467 -3.78949 26.6533 -3.78949 11.4228 11.3685Z" fill="#D60614"/>
<path d="M26.3274 23.2606L29.7102 33.6693H40.6547L31.8073 40.1136L35.1901 50.5223L26.3274 44.0934L17.4646 50.5223L20.8628 40.1136L12 33.6693H22.9445L26.3274 23.2606Z" fill="#FFDA44"/>
<path d="M51.339 60.1045L48.7521 56.9207L44.9254 58.4055L47.1449 54.9614L44.558 51.7622L48.5225 52.8184L50.7574 49.3743L50.9717 53.4766L54.9515 54.5328L51.1094 56.0023L51.339 60.1045Z" fill="#FFDA44"/>
<path d="M56.4822 50.7672L57.7067 46.8487L54.3545 44.4761L58.4568 44.4148L59.666 40.4962L60.9977 44.3842L65.1 44.3383L61.809 46.7874L63.1254 50.6754L59.7732 48.3028L56.4822 50.7672Z" fill="#FFDA44"/>
<path d="M63.4162 28.1741L61.61 31.8631L64.549 34.7255L60.4926 34.1439L58.6864 37.8175L57.9822 33.7765L53.9106 33.1948L57.5537 31.2815L56.8495 27.2251L59.7885 30.0875L63.4162 28.1741Z" fill="#FFDA44"/>
<path d="M51.4462 17L51.14 21.087L54.9515 22.633L50.9563 23.6126L50.6655 27.7149L48.5072 24.2249L44.5121 25.2046L47.1602 22.0666L44.9866 18.5919L48.798 20.1379L51.4462 17Z" fill="#FFDA44"/>
</svg>
